HIERARCHY
ROOT SimulationBone
{
	OFFSET 0.000000 0.000000 0.000000
	CHANNELS 6 Xposition Yposition Zposition Zrotation Yrotation Xrotation 
	JOINT Hips
	{
		OFFSET 0.000000 0.000000 0.000000
		CHANNELS 6 Xposition Yposition Zposition Zrotation Yrotation Xrotation 
		JOINT LeftUpLeg
		{
			OFFSET 0.103456 1.857840 10.548501
			CHANNELS 3 Zrotation Yrotation Xrotation
			JOINT LeftLeg
			{
				OFFSET 43.499992 -0.000038 -0.000006
				CHANNELS 3 Zrotation Yrotation Xrotation
				JOINT LeftFoot
				{
					OFFSET 42.372196 0.000031 0.000002
					CHANNELS 3 Zrotation Yrotation Xrotation
					JOINT LeftToe
					{
						OFFSET 17.299974 -0.000010 -0.000017
						CHANNELS 3 Zrotation Yrotation Xrotation
						End Site
						{
							OFFSET 0.000000 0.000000 0.000000
						}
					}
				}
			}
		}
		JOINT RightUpLeg
		{
			OFFSET 0.103462 1.857831 -10.548510
			CHANNELS 3 Zrotation Yrotation Xrotation
			JOINT RightLeg
			{
				OFFSET 43.500046 -0.000015 0.000008
				CHANNELS 3 Zrotation Yrotation Xrotation
				JOINT RightFoot
				{
					OFFSET 42.372265 -0.000015 0.000004
					CHANNELS 3 Zrotation Yrotation Xrotation
					JOINT RightToe
					{
						OFFSET 17.299995 -0.000004 0.000013
						CHANNELS 3 Zrotation Yrotation Xrotation
						End Site
						{
							OFFSET 0.000000 0.000000 0.000000
						}
					}
				}
			}
		}
		JOINT Spine
		{
			OFFSET 6.901966 -2.603716 -0.000002
			CHANNELS 3 Zrotation Yrotation Xrotation
			JOINT Spine1
			{
				OFFSET 12.588102 -0.000001 0.000005
				CHANNELS 3 Zrotation Yrotation Xrotation
				JOINT Spine2
				{
					OFFSET 12.343201 -0.000023 -0.000011
					CHANNELS 3 Zrotation Yrotation Xrotation
					JOINT Neck
					{
						OFFSET 25.832901 0.000011 0.000007
						CHANNELS 3 Zrotation Yrotation Xrotation
						JOINT Head
						{
							OFFSET 11.766600 -0.000002 0.000002
							CHANNELS 3 Zrotation Yrotation Xrotation
							End Site
							{
								OFFSET 0.000000 0.000000 0.000000
							}
						}
					}
					JOINT LeftShoulder
					{
						OFFSET 19.745907 -1.480350 6.000119
						CHANNELS 3 Zrotation Yrotation Xrotation
						JOINT LeftArm
						{
							OFFSET 11.284122 -0.000013 -0.000023
							CHANNELS 3 Zrotation Yrotation Xrotation
							JOINT LeftForeArm
							{
								OFFSET 33.000057 0.000005 0.000025
								CHANNELS 3 Zrotation Yrotation Xrotation
								JOINT LeftHand
								{
									OFFSET 25.199997 0.000020 0.000019
									CHANNELS 3 Zrotation Yrotation Xrotation
									End Site
									{
										OFFSET 0.000000 0.000000 0.000000
									}
								}
							}
						}
					}
					JOINT RightShoulder
					{
						OFFSET 19.746096 -1.480352 -6.000062
						CHANNELS 3 Zrotation Yrotation Xrotation
						JOINT RightArm
						{
							OFFSET 11.284150 0.000007 -0.000012
							CHANNELS 3 Zrotation Yrotation Xrotation
							JOINT RightForeArm
							{
								OFFSET 33.000092 0.000019 0.000012
								CHANNELS 3 Zrotation Yrotation Xrotation
								JOINT RightHand
								{
									OFFSET 25.199797 0.000118 0.000427
									CHANNELS 3 Zrotation Yrotation Xrotation
									End Site
									{
										OFFSET 0.000000 0.000000 0.000000
									}
								}
							}
						}
					}
				}
			}
		}
	}
}
MOTION
Frames: 11
Frame Time: 0.016667
-294.067930 0.000000 14.590715 0.000000 -1.892453 0.000000 -2.991595 89.377670 -2.764080 87.839244 -3.674769 178.857049 173.089602 7.001907 172.421842 -26.554974 -1.537653 12.690020 85.977601 -7.508739 5.241959 21.454545 0.003089 -0.000002 144.296228 -4.313201 -179.800044 -34.332734 -1.455066 -3.116886 76.492093 7.850031 19.793789 21.454557 -0.003109 -0.000019 7.418523 0.895354 -2.488094 4.784115 1.891925 -4.937977 4.467106 1.862243 -4.949272 23.799027 14.755787 -11.728789 -11.754449 0.203443 -12.623001 -149.644081 -86.261344 -32.169916 -19.013342 63.560570 7.710686 -58.030475 -21.322568 2.458276 4.749316 0.539076 19.933772 -159.291977 72.622440 22.646005 21.343170 -57.426719 -38.926746 -38.910019 13.592311 -1.365583 7.187179 1.209961 -2.726218 
-293.585807 0.000000 14.224076 0.000000 -0.632870 0.000000 -3.011487 89.384600 -2.914780 87.567068 -3.832978 179.139018 173.210588 7.421719 172.595025 -26.191107 -1.473088 13.329658 85.549353 -7.823177 5.772967 21.454550 0.003092 -0.000001 144.170993 -4.632771 -178.959947 -33.163951 -1.416852 -4.191901 76.195695 9.099512 21.180912 21.454562 -0.003107 -0.000013 7.384680 0.865848 -2.533364 4.716885 1.833331 -5.030227 4.399942 1.803097 -5.041165 23.585798 14.918523 -11.609723 -12.238758 0.138810 -12.450188 -149.746085 -86.525982 -32.060503 -20.607552 63.724178 6.038003 -59.091475 -21.085762 2.481487 4.538634 1.088921 20.453472 -159.247814 72.635374 22.691329 21.441711 -56.940700 -39.080563 -39.470025 13.740924 -1.389564 6.986402 1.386680 -2.343469 
-293.070834 0.000000 13.829263 0.000000 0.611223 0.000000 -3.031366 89.305779 -3.063194 87.270242 -4.103844 179.448626 173.298005 7.971603 172.724201 -25.966809 -1.384558 13.956812 85.327674 -8.117058 6.377000 21.454553 0.003093 -0.000000 144.028690 -4.762207 -177.890501 -32.220863 -1.434746 -5.156926 76.342184 10.157599 22.470790 21.454562 -0.003106 -0.000011 7.343428 0.820487 -2.579494 4.635594 1.742708 -5.124890 4.318718 1.711905 -5.135279 23.279185 15.030630 -11.543669 -12.628070 0.061362 -12.310962 -151.193071 -86.773517 -30.599108 -22.352334 63.796314 4.290838 -59.978595 -20.824383 2.497611 4.545453 1.475501 21.001534 -158.720905 72.762807 23.230974 21.562162 -56.610508 -39.253472 -40.059069 13.853711 -1.412385 7.032106 1.647135 -1.638755 
-292.524771 0.000000 13.408530 0.000000 1.839778 0.000000 -3.066894 89.174027 -3.199363 86.960070 -4.411010 179.755496 173.363977 8.560593 172.929767 -25.833514 -1.334623 14.504767 85.260594 -8.348382 7.035803 21.454552 0.003092 -0.000000 143.919726 -4.820273 -176.815044 -31.403057 -1.445003 -5.917259 76.615994 10.905254 23.322617 21.454559 -0.003106 -0.000012 7.297022 0.771195 -2.618310 4.544375 1.643648 -5.205089 4.227555 1.612363 -5.214880 22.948485 15.120997 -11.495994 -12.964325 -0.040234 -12.177250 -153.993082 -86.982380 -27.779856 -24.179021 63.781884 2.559570 -60.700547 -20.585705 2.508952 4.640951 1.735139 21.460898 -157.974630 72.930042 23.995065 21.681698 -56.361770 -39.345688 -40.643303 13.944679 -1.433834 7.187803 1.938601 -0.828800 
-291.949379 0.000000 12.964133 0.000000 3.052680 0.000000 -3.134563 89.022163 -3.314644 86.645650 -4.678189 -179.971752 173.422465 9.097397 173.332347 -25.743891 -1.386743 14.906669 85.297348 -8.474560 7.731665 21.454551 0.003090 -0.000001 143.891225 -4.928300 -175.956465 -30.612186 -1.382648 -6.375939 76.691993 11.238262 23.381399 21.454558 -0.003107 -0.000016 7.247684 0.729914 -2.641658 4.447230 1.559815 -5.254031 4.130444 1.528237 -5.263317 22.663222 15.218691 -11.432023 -13.289602 -0.176723 -12.020768 -157.988045 -87.128308 -23.762991 -26.019929 63.689675 0.933687 -61.266393 -20.416923 2.518946 4.696109 1.906741 21.712398 -157.287124 73.064961 24.698978 21.778216 -56.120374 -39.257997 -41.188919 14.027860 -1.453873 7.313907 2.211626 -0.131700 
-291.346418 0.000000 12.498330 0.000000 4.249750 0.000000 -3.247227 88.872115 -3.404482 86.329210 -4.857163 -179.754209 173.476668 9.520156 174.001233 -25.672374 -1.581977 15.126413 85.400111 -8.472772 8.453152 21.454548 0.003088 -0.000002 143.989984 -5.164485 -175.435330 -29.761513 -1.212226 -6.429542 76.349809 11.088650 22.503229 21.454560 -0.003109 -0.000020 7.196237 0.704190 -2.644474 4.345480 1.506171 -5.261321 4.028701 1.474552 -5.270284 22.471012 15.345376 -11.330170 -13.637494 -0.369421 -11.819457 -162.642921 -87.194796 -19.085976 -27.833431 63.536313 -0.527548 -61.681031 -20.349532 2.530282 4.636687 1.987678 21.694587 -156.906639 73.118502 25.088867 21.838676 -55.824416 -38.934358 -41.663941 14.115944 -1.472541 7.305904 2.431688 0.283779 
-290.717649 0.000000 12.013375 0.000000 5.430748 0.000000 -3.400431 88.702232 -3.475990 85.993749 -5.011498 -179.568071 173.482598 9.886399 174.799226 -25.678798 -1.868848 15.251358 85.578076 -8.402615 9.211866 21.454548 0.003088 -0.000002 144.271735 -5.430209 -174.963956 -28.807633 -1.018387 -5.956493 75.770914 10.531576 21.401257 21.454562 -0.003111 -0.000023 7.137981 0.683913 -2.633957 4.230050 1.462613 -5.241809 3.913272 1.431113 -5.250510 22.331201 15.492409 -11.221187 -14.007236 -0.683767 -11.576700 -166.873018 -87.200305 -14.836946 -29.672619 63.355521 -1.876651 -61.932090 -20.352482 2.540393 4.606865 1.803658 21.580206 -156.887913 73.119589 25.107920 21.881891 -55.460345 -38.487954 -42.043519 14.216211 -1.489536 7.211341 2.607962 0.452079 
-290.064832 0.000000 11.511524 0.000000 6.595374 0.000000 -3.580607 88.491582 -3.535286 85.638144 -5.202057 -179.381203 173.419414 10.253495 175.537708 -25.816462 -2.166669 15.403267 85.842525 -8.349640 10.011814 21.454549 0.003091 -0.000000 144.785339 -5.605788 -174.274738 -27.740672 -0.871022 -4.939194 75.162949 9.678090 20.646619 21.454560 -0.003111 -0.000022 7.071485 0.660344 -2.618441 4.098352 1.411947 -5.212480 3.781585 1.380625 -5.220876 22.187072 15.631529 -11.140897 -14.380372 -1.152431 -11.308730 -169.833350 -87.171379 -11.863643 -31.597320 63.171757 -3.167072 -61.993858 -20.393848 2.545562 4.714715 1.242197 21.535364 -157.173618 73.103643 24.814210 21.909700 -55.036512 -38.026874 -42.309854 14.325264 -1.504024 7.104219 2.763020 0.496263 
-289.389729 0.000000 10.995034 0.000000 7.743269 0.000000 -3.757505 88.265671 -3.574675 85.334520 -5.365606 -179.177427 173.407001 10.552095 176.031050 -26.026857 -2.370418 15.714481 86.170594 -8.418035 10.802950 21.454551 0.003094 0.000002 145.545661 -5.654098 -173.588903 -26.642400 -0.635586 -3.783208 74.483683 8.571232 19.397129 21.454558 -0.003110 -0.000020 7.013888 0.647932 -2.598649 3.984013 1.383868 -5.174066 3.667241 1.352776 -5.182293 22.006820 15.686501 -11.092310 -14.699107 -1.632647 -11.061631 -171.593077 -87.091460 -10.095907 -33.581932 62.968837 -4.326211 -61.805636 -20.500610 2.545794 4.702916 0.607579 21.469310 -157.480965 73.061225 24.499017 21.833491 -54.600281 -37.478084 -42.466249 14.402402 -1.513463 7.008250 2.935899 0.688111 
-288.694099 0.000000 10.466160 0.000000 8.874025 0.000000 -3.909579 88.051677 -3.591573 85.118368 -5.455727 -178.950272 173.522400 10.728798 176.164698 -26.252749 -2.422120 16.270548 86.512173 -8.676763 11.533869 21.454551 0.003095 0.000002 146.521234 -5.549183 -173.114870 -25.566490 -0.205795 -2.933253 73.858906 7.212987 16.722032 21.454557 -0.003111 -0.000020 6.973660 0.655996 -2.573266 3.903585 1.397342 -5.123567 3.586770 1.366552 -5.131876 21.787438 15.600793 -11.066931 -14.945770 -1.981821 -10.877199 -172.624787 -86.947311 -9.058456 -35.548332 62.740141 -5.245739 -61.320345 -20.700400 2.541083 4.317951 0.192854 21.179251 -157.560231 72.984941 24.419552 21.602865 -54.201347 -36.763539 -42.529963 14.408523 -1.515696 6.942448 3.169006 1.237662 
-287.979705 0.000000 9.927159 0.000000 9.987178 0.000000 -4.062751 87.837021 -3.625832 84.816321 -5.628023 -178.709525 173.539848 10.929199 176.102153 -26.556690 -2.477775 16.965042 86.749897 -9.038569 12.205470 21.454551 0.003094 0.000001 147.525364 -5.252700 -172.525387 -24.379457 0.143928 -2.590799 74.196146 5.650380 12.691040 21.454558 -0.003111 -0.000020 6.905968 0.650206 -2.540260 3.768942 1.381708 -5.058619 3.452079 1.351309 -5.066837 21.615705 15.444629 -11.045109 -15.310351 -2.229785 -10.739550 -174.155082 -86.799895 -7.519011 -37.310822 62.546916 -5.818879 -60.581427 -20.964689 2.530589 3.682312 -0.172670 20.247838 -157.514898 72.914151 24.468017 21.396663 -53.864871 -35.951492 -42.553177 14.348252 -1.512336 6.951882 3.498124 1.959591 
